<?xml version="1.0" encoding="UTF-8"?>
<svg width="231px" height="231px" viewBox="0 0 231 231" version="1.1" xmlns="http://www.w3.org/2000/svg" xmlns:xlink="http://www.w3.org/1999/xlink">
    <!-- Generator: Sketch 50.2 (55047) - http://www.bohemiancoding.com/sketch -->
    <title>pic02</title>
    <desc>Created with Sketch.</desc>
    <defs></defs>
    <g id="pic02" stroke="none" stroke-width="1" fill="none" fill-rule="evenodd">
        <g id="np_shopping-cart_214188_21CE99" transform="translate(25.000000, 25.000000)" fill="#21CE99" fill-rule="nonzero">
            <path d="M46.7651233,144.083228 C36.394674,144.083228 27.8021894,152.673652 27.8021894,163.041614 C27.8021894,173.656288 36.394674,182 46.7651233,182 C57.1355725,182 65.7280571,173.409576 65.7280571,163.041614 C65.7280571,152.42694 57.1355725,144.083228 46.7651233,144.083228 Z M46.7651233,171.888861 C41.9652255,171.888861 37.9157541,167.840361 37.9157541,163.041614 C37.9157541,158.242867 41.9652255,154.194367 46.7651233,154.194367 C51.5650211,154.194367 55.6144924,158.242867 55.6144924,163.041614 C55.6144924,167.840361 51.5650211,171.888861 46.7651233,171.888861 Z M145.372379,144.083228 C135.00193,144.083228 126.409445,152.673652 126.409445,163.041614 C126.409445,173.656288 135.00193,182 145.372379,182 C155.742829,182 164.335313,173.409576 164.335313,163.041614 C164.335313,152.42694 155.742829,144.083228 145.372379,144.083228 Z M145.372379,171.888861 C140.572482,171.888861 136.52301,167.840361 136.52301,163.041614 C136.52301,158.242867 140.572482,154.194367 145.372379,154.194367 C150.172277,154.194367 154.221748,158.242867 154.221748,163.041614 C154.221748,167.840361 150.172277,171.888861 145.372379,171.888861 Z M144.108184,101.110886 C147.643886,101.110886 152.197013,98.3262787 153.214437,94.7914244 L181.284636,46.2604841 C184.069912,39.9410221 178.25259,32.8612024 171.931612,32.8612024 L40.4552702,17.6944936 L32.8700967,0 L4.79989782,0 C2.77521273,0 0,2.5277848 0,5.0555696 L0,12.3821011 C0,14.9098859 2.78527572,17.6944936 4.79989782,17.6944936 L20.2271294,17.6944936 L44.2369849,90.2393896 L30.587718,108.190706 C30.587718,108.190706 10.6174731,136.254173 45.5011805,136.254173 L159.020888,136.254173 C161.806163,136.254173 164.334555,133.726388 164.334555,131.198603 L164.334555,123.872072 C164.334555,121.344287 161.806163,118.559679 159.020888,118.559679 L48.0295717,118.559679 L60.6715276,100.865186 L144.108437,100.855312 L144.108184,101.110886 Z" id="Shape"></path>
        </g>
    </g>
</svg>