<?xml version="1.0" encoding="UTF-8"?>
<svg width="231px" height="231px" viewBox="0 0 231 231" version="1.1" xmlns="http://www.w3.org/2000/svg" xmlns:xlink="http://www.w3.org/1999/xlink">
    <!-- Generator: Sketch 50.2 (55047) - http://www.bohemiancoding.com/sketch -->
    <title>pic03</title>
    <desc>Created with Sketch.</desc>
    <defs></defs>
    <g id="pic03" stroke="none" stroke-width="1" fill="none" fill-rule="evenodd">
        <g id="np_coins_319864_21CE99" transform="translate(17.000000, 27.000000)" fill="#21CE99" fill-rule="nonzero">
            <path d="M197.969629,59.3335548 C197.637048,53.6937215 190.939044,49.2824842 177.512267,45.9139317 C177.93765,44.9250424 178.200634,43.9052998 178.200634,42.854506 L178.200634,19.7777857 L178.131025,19.7777857 C176.978605,0.564062448 98.1429777,0 89.1003169,0 C80.0576561,0 1.22196899,0.563983337 0.0696088863,19.7777857 L0,19.7777857 L0,20.2026916 L0,42.8541896 C0,49.1197921 8.12116873,54.0254741 20.1643218,57.6566755 C20.0018984,58.2129257 19.901358,58.769176 19.8704106,59.3331593 L19.8008017,59.3331593 L19.8008017,59.7580652 L19.8008017,82.3719854 C6.83021653,85.7017734 0.364327953,90.0590174 0.0316879229,95.5906662 L0.000750420068,95.5906662 L0.000750420068,96.0155722 L0.000750420068,118.66707 C0.000750420068,123.016601 3.96075078,126.740362 10.3957514,129.807501 C10.1637151,130.464183 10.0012957,131.159491 9.97036812,131.854898 L9.90075923,131.854898 L9.90075923,132.279804 L9.90075923,154.92339 C9.93169673,165.901644 34.6507615,172.692544 62.1074239,175.852243 C62.3085127,175.883148 62.5018796,175.983582 62.7029684,175.983582 C62.7725773,175.983582 62.8035148,175.952679 62.8653898,175.952679 C68.1480303,176.547555 73.5233347,177.011107 78.8677512,177.335581 C78.9682976,177.335581 79.06884,177.405114 79.2003318,177.405114 C79.2699407,177.405114 79.3008782,177.374211 79.3627532,177.374211 C86.1303939,177.799117 92.7974505,178 99.000395,178 C105.20334,178 111.870396,177.799137 118.638037,177.374211 C118.707646,177.374211 118.738583,177.405114 118.800458,177.405114 C118.931942,177.405114 119.032494,177.335581 119.133039,177.335581 C124.446567,177.003374 129.821872,176.547555 135.1354,175.952679 C135.205009,175.952679 135.235947,175.983582 135.297822,175.983582 C135.49891,175.983582 135.692277,175.883148 135.893366,175.852243 C163.350029,172.692346 188.070331,165.870593 188.100031,154.92339 L188.100031,131.84667 L188.030422,131.84667 C187.798386,127.790642 184.333366,124.43 177.534837,121.62551 C177.967962,120.675247 178.199998,119.686358 178.199998,118.666556 L178.199998,97.1127251 C190.049111,93.4894347 198,88.606695 198,82.4107103 L198,59.33399 L197.969629,59.3335548 Z M171.239626,119.725023 L170.118134,120.713913 C168.370171,122.22814 165.500774,123.781052 161.703134,125.264386 L161.703134,109.542628 C165.632246,108.190639 168.965774,106.676432 171.603135,104.992155 L171.603135,118.635663 C171.603135,118.998763 171.471649,119.361884 171.239626,119.724984 L171.239626,119.725023 Z M97.4450197,135.052807 C96.9500197,135.052807 96.4859472,135.08371 95.9909472,135.08371 C94.7998583,135.114613 93.616531,135.114613 92.3944749,135.114613 L92.3944749,118.666615 C93.2839306,118.666615 94.2120556,118.635712 95.1324191,118.635712 L95.6583468,118.635712 C98.9918751,118.566182 102.294515,118.473473 105.628044,118.303505 L105.628044,134.751503 C104.931955,134.782407 104.21266,134.821035 103.485683,134.851938 C101.474795,134.913744 99.4639071,134.983275 97.4450989,135.052801 L97.4450197,135.052807 Z M83.0282424,135.08371 C81.5123147,135.052807 80.0273542,135.014179 78.503546,134.983277 C78.3024572,134.983277 78.1400378,134.983277 77.9389292,134.952374 C76.1600178,134.882843 74.3424569,134.821037 72.5945127,134.720598 L72.5945127,118.2726 C75.897153,118.434839 79.2306813,118.535269 82.5642096,118.604808 L83.0901372,118.604808 C84.0105205,118.604808 84.907718,118.63571 85.8280815,118.63571 L85.8280815,135.114562 L83.9176981,135.114562 C83.5851175,135.114562 83.3221537,135.083659 83.0282424,135.083659 L83.0282424,135.08371 Z M23.4262771,127.566569 C23.3257307,127.535667 23.2251883,127.497039 23.0936964,127.466136 L23.0936964,111.543436 C26.1642807,112.370088 29.497809,113.127202 32.9936973,113.814717 L32.9936973,129.899595 C29.9540011,129.273806 27.1542808,128.578498 24.6095846,127.890963 C24.2228707,127.798256 23.8284151,127.697821 23.4262177,127.566488 L23.4262771,127.566569 Z M92.9579433,154.861891 C93.8783266,154.861891 94.7755241,154.892794 95.6958876,154.892794 L95.6958876,171.371645 C91.1403032,171.34074 86.7161908,171.209404 82.4932464,170.977632 L82.4932464,154.529634 C85.7958867,154.691876 89.129415,154.792303 92.4629433,154.861842 L92.9579433,154.861842 L92.9579433,154.861891 Z M105.534112,154.861891 C108.867641,154.792361 112.170281,154.699652 115.503809,154.529684 L115.503809,170.977682 C111.280865,171.178545 106.856753,171.309889 102.301168,171.371695 L102.301168,154.892844 C103.190624,154.892844 104.118749,154.861941 105.039112,154.861941 L105.534112,154.861941 L105.534112,154.861891 Z M132.000775,153.378557 L132.000775,169.764848 C128.829607,170.097056 125.534886,170.390637 122.100774,170.622393 L122.100774,154.174396 C125.434302,153.934907 128.767831,153.672218 132.000775,153.378557 Z M138.598135,152.652337 C141.99344,152.258324 145.29608,151.763879 148.498136,151.269435 L148.498136,167.454783 C145.396664,168.018767 142.094024,168.513211 138.598135,168.96901 L138.598135,152.652337 Z M155.095497,150.079643 C158.591385,149.384335 161.924914,148.627221 164.995498,147.808362 L164.995498,163.731061 C162.056386,164.588606 158.761665,165.415258 155.095497,166.172431 L155.095497,150.079643 Z M42.9007668,150.079643 L42.9007668,166.16452 C39.2345985,165.407407 35.9398782,164.580755 33.0007659,163.72315 L33.0007659,147.800451 C36.0636282,148.627103 39.3971565,149.391949 42.9007668,150.079445 L42.9007668,150.079643 Z M49.4981274,151.269395 C52.7001837,151.794733 56.002824,152.258284 59.3981283,152.652297 L59.3981283,168.968971 C55.90224,168.505419 52.5995997,168.010974 49.4981274,167.454744 L49.4981274,151.269395 Z M65.9954889,153.378498 C69.2284332,153.710706 72.5619615,153.973374 75.8954898,154.166524 L75.8954898,170.614522 C72.4613775,170.382746 69.1666572,170.089184 65.9954889,169.756977 L65.9954889,153.378498 Z M57.8125442,133.662419 C57.4799635,133.631516 57.1551247,133.592888 56.8225441,133.561986 C56.5905079,133.531083 56.3584716,133.492455 56.0955078,133.492455 L56.0955078,117.106164 C59.3284521,117.438371 62.6619804,117.70104 65.9955087,117.89419 L65.9955087,134.311334 C63.2266765,134.125917 60.4887322,133.925054 57.812564,133.662386 L57.8125442,133.662419 Z M49.4981274,116.395423 L49.4981274,132.712097 C46.0022391,132.248565 42.6995988,131.75412 39.5981265,131.19787 L39.5981265,115.012521 C42.8001828,115.537859 46.1028231,115.993677 49.4981274,116.395423 Z M114.412433,134.19543 C113.685397,134.264963 112.958361,134.295866 112.200377,134.357672 L112.200377,117.909674 C115.533905,117.677898 118.867434,117.415229 122.100378,117.121648 L122.100378,133.507939 C120.050682,133.739715 117.978018,133.932845 115.827737,134.102815 C115.363665,134.125991 114.868665,134.156893 114.412354,134.195521 L114.412433,134.19543 Z M128.697739,132.712097 L128.697739,116.395423 C132.093043,116.00141 135.395683,115.506966 138.597739,115.012521 L138.597739,131.19787 C135.496267,131.75412 132.193627,132.248565 128.697739,132.712097 Z M145.1951,113.822729 C148.690988,113.127421 152.024517,112.370288 155.095101,111.551448 L155.095101,127.474148 C152.155989,128.331693 148.861268,129.158345 145.1951,129.915518 L145.1951,113.822729 Z M100.088716,98.7884474 C97.6137157,98.7189146 95.1696035,98.6262083 92.7951873,98.5257786 C92.6637014,98.5257786 92.5322235,98.5257786 92.4007317,98.4948758 L92.4007317,82.0468782 C95.703372,82.2091173 99.0369003,82.3095469 102.370429,82.3790856 L102.896356,82.3790856 C103.81674,82.3790856 104.713937,82.4099884 105.6343,82.4099884 L105.6343,98.8579861 C104.017809,98.8579861 102.401356,98.8270833 100.84666,98.7884553 L100.088696,98.7884553 L100.088716,98.7884474 Z M23.100369,51.6540286 L23.100369,35.7313288 C26.1709533,36.557981 29.5044816,37.3150944 33.0003699,38.0026098 L33.0003699,54.0874873 C32.6059143,53.9870537 32.1727893,53.9252481 31.7783336,53.8248185 C30.0303697,53.4308055 28.3133333,53.0367924 26.6659732,52.6041534 C25.4052674,52.3105719 24.2527489,51.9860976 23.1003888,51.6538901 L23.100369,51.6540286 Z M83.0567544,42.7848783 C83.9771377,42.7848783 84.8743352,42.8157831 85.7946987,42.8157831 L85.7946987,59.2637808 C81.3396983,59.232878 76.9543939,59.1015397 72.5920575,58.9006804 L72.5920575,42.4526827 C75.8946978,42.6149219 79.2282261,42.7153515 82.5617544,42.7848902 L83.0567544,42.7848902 L83.0567544,42.7848783 Z M95.6329236,42.7848783 C98.9664519,42.7153476 102.269092,42.6226392 105.60262,42.4526709 L105.60262,58.9006686 C105.038004,58.9315714 104.512076,58.9701993 103.955201,59.0011021 L103.823717,59.0011021 C101.611661,59.1015357 99.3687166,59.1633413 97.0560764,59.232878 C96.6925682,59.232878 96.3290401,59.232878 95.9964595,59.2637808 C94.8053706,59.2946836 93.6220433,59.2946836 92.4308752,59.2946836 L92.4308752,42.8466859 C93.3203309,42.8466859 94.248456,42.8157851 95.1688194,42.8157851 C95.3003033,42.7848803 95.4627307,42.7848803 95.6328919,42.7848803 L95.6329236,42.7848783 Z M170.84125,44.4304494 L170.740704,44.3995466 L169.549615,45.3188972 C167.801651,46.6708869 165.125503,48.0537694 161.69931,49.3749255 L161.69931,33.6840215 C165.628423,32.3320318 168.961951,30.8178248 171.599311,29.1335485 L171.599311,42.7770562 C171.599311,43.3487529 171.336347,43.8741102 170.841347,44.4303604 L170.84125,44.4304494 Z M128.696947,56.8611833 L128.696947,40.5753635 C132.092251,40.1813504 135.394891,39.6869058 138.596947,39.1924611 L138.596947,55.3469565 C135.464587,55.9032067 132.161947,56.3976513 128.696947,56.8611833 Z M145.194308,54.0954577 L145.194308,38.0414335 C148.690196,37.3461257 152.023725,36.5889925 155.094309,35.7701526 L155.094309,51.661999 C152.124309,52.480918 148.82939,53.299837 145.194308,54.0956555 L145.194308,54.0954577 Z M122.099586,41.3015049 L122.099586,57.6491303 C118.89753,57.9813377 115.594889,58.2749192 112.199585,58.5066753 L112.199585,42.0895309 C115.533113,41.8654882 118.866642,41.6028194 122.099586,41.3015049 Z M56.0943,57.6491303 L56.0943,41.3016037 C59.3272443,41.6338112 62.6607726,41.89648 65.9943009,42.0896298 L65.9943009,58.5067742 C62.6298846,58.2749983 59.3272443,57.9814366 56.0943,57.6492292 L56.0943,57.6491303 Z M49.4969394,40.5753635 L49.4969592,56.8611833 C48.83952,56.7607497 48.1743587,56.6989441 47.5169392,56.6294074 C47.091556,56.5598766 46.6893586,56.4980711 46.2639753,56.4671683 C44.353592,56.2044995 42.505143,55.9031849 40.6566148,55.5787106 C40.2931066,55.5091798 39.9295786,55.4473742 39.5660703,55.3778474 L39.5660703,39.1924987 C42.7990146,39.7178362 46.1016549,40.181388 49.4969592,40.575401 L49.4969394,40.5753635 Z M84.9745826,98.0318087 C84.5105102,98.0009059 84.0851269,97.9622779 83.6520019,97.9313751 C81.5405297,97.7691359 79.4908335,97.5682747 77.4799453,97.3673917 C77.0545621,97.336489 76.6214371,97.2669582 76.196034,97.2360534 C76.0954876,97.2360534 76.0336126,97.2051526 75.9330702,97.2051526 L75.9330702,80.8188616 C79.1660145,81.1510691 82.4995428,81.4137378 85.8330711,81.6068877 L85.8330711,98.024032 C85.5314379,98.06266 85.2375266,98.06266 84.9745628,98.0317572 L84.9745826,98.0318087 Z M63.1549806,95.5595854 C61.8323999,95.3587223 60.6102844,95.1346795 59.3961483,94.9029036 L59.3961483,78.7484083 C62.5982046,79.2737458 65.9008449,79.7372976 69.2961492,80.1313106 L69.2961492,96.4479838 C67.285261,96.185315 65.3052608,95.9226463 63.3870367,95.5904388 C63.3251617,95.5904388 63.2555528,95.5904388 63.1550004,95.559536 L63.1549806,95.5595854 Z M52.7985897,77.558636 L52.7985897,93.6126602 C49.1712294,92.8246341 45.8377011,91.997982 42.8985888,91.140437 L42.8985888,75.2873551 C45.9614511,76.1140072 49.2949794,76.8711206 52.7985897,77.558636 Z M36.2935062,73.2785254 L36.2935062,88.9385761 C31.1114498,86.9299442 27.7470335,84.8825478 26.6564494,83.0748582 L26.4244131,82.7117579 C26.432147,82.6035991 26.3934756,82.5031616 26.3934756,82.4104631 L26.3934756,68.7669554 C29.0385579,70.4125265 32.3720862,71.9268522 36.2934765,73.2786639 L36.2935062,73.2785254 Z M115.432133,82.3407068 C118.765662,82.271176 122.068302,82.1784677 125.40183,82.0084994 L125.40183,98.456497 C121.078302,98.6573602 116.654189,98.7887045 112.199189,98.8195974 L112.199189,82.3715997 C113.088645,82.3715997 114.01677,82.340695 114.937133,82.340695 L115.432133,82.340695 L115.432133,82.3407068 Z M158.103117,95.0030386 C156.649064,95.2657073 155.202813,95.4974832 153.679005,95.7292591 C152.820497,95.8605954 151.931041,95.9919278 151.041645,96.1232721 C150.214064,96.2546105 149.324608,96.355048 148.496948,96.4554796 L148.496948,80.1696597 C151.892253,79.7756467 155.194893,79.281202 158.396949,78.7867574 L158.396949,94.9721061 C158.296403,94.9643809 158.19586,94.9643809 158.103038,95.0030089 L158.103117,95.0030386 Z M135.758815,97.7998152 C134.536779,97.9002488 133.252927,97.9620544 131.999983,98.062484 L131.999983,81.6453397 C135.333511,81.4135638 138.667039,81.150895 141.899984,80.8573136 L141.899984,97.2048401 C139.9896,97.4057033 138.071455,97.5988532 136.091455,97.7688234 C135.990909,97.7688234 135.859419,97.7997262 135.758875,97.7997262 L135.758815,97.7998152 Z M173.448119,91.6346839 C171.800699,92.0982356 170.052814,92.5231416 168.29695,92.9557806 C167.469369,93.1566438 166.649531,93.3497937 165.791062,93.519764 C165.528098,93.5892947 165.265134,93.6201995 165.002151,93.6820051 L165.002151,77.5971275 C168.498039,76.9018197 171.831567,76.1446865 174.902152,75.3258466 L174.902152,91.2485463 C174.438079,91.3412547 173.943079,91.5035018 173.448079,91.6348263 L173.448119,91.6346839 Z M191.360982,59.5353377 C191.067071,61.7757653 185.985678,64.7424331 176.905397,67.5469231 C165.226564,71.1393601 146.973734,74.4382948 123.809712,75.4580374 C122.618623,75.4889402 121.435296,75.558471 120.244128,75.5893738 C119.254128,75.6202766 118.264128,75.6589046 117.274128,75.6898073 C114.543905,75.7825157 111.767351,75.8134185 108.897737,75.8134185 C106.028123,75.8134185 103.251568,75.7825157 100.552432,75.7129849 C99.5624319,75.6820821 98.5724318,75.6434541 97.5824317,75.6125514 C96.3603954,75.5816486 95.2080155,75.5121178 94.0168474,75.481213 C70.8528253,74.4614308 52.5992037,71.1625357 40.9211626,67.5700987 C31.9105778,64.8043732 26.8599934,61.8377053 26.4655773,59.6281311 C26.4655773,59.5585984 26.4965129,59.4967928 26.5351862,59.4272679 C26.7672224,59.4967987 26.9992587,59.5277015 27.2312751,59.5895071 C28.5151864,59.8830885 29.8377473,60.1843833 31.1912754,60.4779648 C37.757748,61.89176 45.0203887,63.0506591 52.7693174,63.9390773 L52.8389263,63.9390773 C58.1215668,64.5339535 63.5974552,64.9975052 69.2048157,65.3528725 C69.2357533,65.3528725 69.2744246,65.3837753 69.3362996,65.3837753 L69.4059105,65.3837753 C73.4664949,65.6155512 77.5579672,65.8086812 81.6803276,65.8782199 C84.1784938,65.8936703 86.6921041,65.9245731 89.0976063,65.9245731 C90.8455702,65.9245731 92.5934946,65.8936703 94.4111348,65.8550423 C118.402797,65.491942 140.608499,62.6257255 156.08418,58.2065771 C156.811217,58.0057139 157.499564,57.812564 158.164764,57.5807881 C158.590148,57.4494518 159.023273,57.3181194 159.417728,57.1867751 C160.608817,56.7927621 161.761257,56.398749 162.851841,55.9970226 C163.05293,55.9274918 163.215349,55.8656863 163.416458,55.7652468 C164.336841,55.4021464 165.234038,55.0390262 166.123514,54.6759259 C166.386478,54.5754923 166.618514,54.44415 166.881478,54.3437184 C167.801861,53.9188125 168.660389,53.5170663 169.48795,53.0612477 C169.851458,52.8603845 170.184039,52.6672346 170.508897,52.4663714 C170.903353,52.2345956 171.297809,52.0028197 171.661317,51.7710636 C171.862406,51.6397272 172.125389,51.5083948 172.318736,51.3770506 C187.075876,54.6836985 190.997266,58.1833777 191.360794,59.5353871 L191.360982,59.5353377 Z M89.097933,6.59020541 C143.516258,6.59020541 171.03628,15.1579422 171.56098,20.0715353 C171.166525,22.3119628 166.085092,25.2477773 157.136283,28.0135029 C145.45745,31.6059399 127.20462,34.9048745 104.040598,35.9246171 C102.849509,35.9555219 101.666182,36.0250527 100.475014,36.0559555 C99.4850139,36.0868583 98.4950138,36.1254863 97.5050137,36.1563891 C94.7439035,36.2259198 91.9671512,36.2568226 89.097735,36.2568226 C86.2283187,36.2568226 83.4515665,36.2259198 80.7524302,36.1563891 C79.7624301,36.1254863 78.77243,36.0868583 77.78243,36.0559555 C76.5603937,36.0250527 75.4080137,35.9555219 74.2168456,35.9246171 C51.0132236,34.904835 32.7675219,31.6136532 21.0815609,28.0212162 C12.109784,25.2477773 7.0591996,22.2811095 6.63369756,20.0715353 C7.159645,15.1656555 34.6784201,6.59020541 89.096745,6.59020541 L89.097933,6.59020541 Z M6.59528555,42.8547533 L6.59528555,29.2112456 C9.23264579,30.8568167 12.5661741,32.3788557 16.4952864,33.7617185 L16.4952864,49.5530937 C10.0988959,47.1040105 6.59528555,44.7014051 6.59528555,42.854951 L6.59528555,42.8547533 Z M22.566759,88.4366159 C22.6363679,88.5061467 22.6982429,88.5370495 22.7291804,88.5988551 C27.2538768,93.149328 36.5891816,96.741765 48.2375227,99.4070194 C48.5004865,99.4765502 48.8021395,99.5383558 49.0651034,99.6078826 C49.9236116,99.8087458 50.7821397,99.970983 51.6715756,100.171866 C62.3604086,102.443147 75.1385377,104.09657 89.059919,104.91537 L89.0908565,104.91537 C93.5458569,105.178039 98.1323293,105.340276 102.788498,105.440708 C104.869082,105.448433 106.91858,105.479336 108.89858,105.479336 C111.172412,105.479336 113.515941,105.448433 115.898277,105.378902 C120.221805,105.278468 124.475638,105.116233 128.667694,104.853564 L128.698632,104.853564 C128.729569,104.853564 128.76824,104.853564 128.799178,104.822662 C142.759763,103.99601 155.82222,102.350438 166.882501,99.9478331 C164.477197,101.199391 161.205445,102.489674 157.113972,103.772066 C144.769859,107.565445 125.10133,111.026557 100.087987,111.845358 C99.3300235,111.876261 98.6029872,111.914891 97.8450431,111.914891 C97.0174625,111.945791 96.2285512,111.945791 95.4009309,111.945791 C93.3203467,112.038502 91.2397625,112.07713 89.0974023,112.07713 C86.2279861,112.07713 83.4512338,112.046227 80.7520976,111.976696 C79.7620975,111.945791 78.7720974,111.907163 77.7820973,111.876261 C76.560061,111.845358 75.4076811,111.775827 74.216513,111.744924 C51.0524909,110.725142 32.7988693,107.426247 21.1208282,103.83381 C12.0484674,101.02932 6.96699495,98.0626521 6.66524292,95.8222246 C6.99782355,94.5706665 10.3236892,91.4418406 22.5670204,88.4364083 L22.566759,88.4366159 Z M6.59528555,118.666961 L6.59519843,105.023454 C9.23264579,106.669025 12.5661741,108.191064 16.4952864,109.573927 L16.4952864,125.257117 L14.6158307,124.530897 L14.5848952,124.5618 C9.40283869,122.421843 6.59519843,120.31274 6.59519843,118.667031 L6.59528555,118.666961 Z M16.4952864,154.923598 L16.4952864,141.28009 C19.1326467,142.925662 22.466175,144.447701 26.3952873,145.830563 L26.3952873,161.621939 C19.9988968,159.180569 16.4952864,156.77025 16.4952864,154.923796 L16.4952864,154.923598 Z M171.60058,161.583174 L171.60058,145.791799 C175.529693,144.439809 178.863221,142.925602 181.500581,141.241326 L181.500581,154.884834 C181.500581,156.769894 177.996971,159.180371 171.60058,161.583174 Z M181.461971,132.118229 C181.098463,134.358657 176.047859,137.294471 167.006386,140.098961 C155.327553,143.691398 137.074723,146.990333 113.910701,148.010075 C112.719612,148.040976 111.536285,148.110509 110.345117,148.141412 C109.355117,148.172314 108.365117,148.210942 107.375117,148.241845 C104.644894,148.303651 101.86834,148.334554 98.9987259,148.334554 C96.1291116,148.334554 93.3525574,148.303651 90.6146131,148.23412 C89.624613,148.203217 88.6346129,148.164587 87.6755009,148.133686 C86.4534645,148.102782 85.2701966,148.033251 84.0790285,148.002348 C60.9150064,146.982566 42.6613848,143.683671 30.9833437,140.091234 C22.274511,137.387215 17.2239265,134.521018 16.5974545,132.342297 C17.5874545,132.674505 18.6083426,133.037605 19.6371507,133.331187 C19.7376971,133.362091 19.8382395,133.400719 19.9697314,133.431622 C20.859187,133.694291 21.7873121,133.95696 22.7076756,134.219648 C23.0711838,134.320082 23.4037645,134.420512 23.7672925,134.51323 C24.2932201,134.644566 24.8269094,134.775899 25.3837844,134.938136 C37.3952575,138.005275 52.7394669,140.176085 69.3081084,141.164974 C74.4204689,141.458555 79.6334133,141.659418 84.9160538,141.728957 C86.3314371,141.74441 87.7468601,141.74441 89.1003882,141.74441 C90.9179689,141.74441 92.7974445,141.713507 94.6768607,141.674877 C99.4953891,141.605346 104.244222,141.412208 108.90039,141.149539 L108.931327,141.149539 L108.962265,141.149539 C114.608433,140.817332 120.11521,140.322887 125.366962,139.735744 L125.436571,139.735744 C125.506182,139.735744 125.568057,139.704841 125.63766,139.704841 C131.507965,139.009533 137.053549,138.190614 142.204718,137.232618 C143.264335,137.031755 144.31619,136.838605 145.337078,136.637742 C145.569114,136.606837 145.80115,136.537306 146.033167,136.506403 C155.770808,134.497771 164.216696,131.925077 169.995129,128.726614 C170.32771,128.564372 170.621621,128.363513 170.915512,128.201256 C171.27902,127.96948 171.642548,127.77635 171.975129,127.544574 C172.30771,127.343711 172.671218,127.150561 172.965129,126.918786 C179.454184,129.213404 181.240936,131.291456 181.46527,132.118168 L181.461971,132.118229 Z M181.500643,89.0699006 L181.500643,73.2785254 C185.429755,71.9265358 188.763283,70.4123287 191.400644,68.7280525 L191.400644,82.3715602 C191.400644,84.2566205 187.897033,86.6593841 181.500643,89.0699006 Z" id="Shape"></path>
        </g>
    </g>
</svg>