<?xml version="1.0" encoding="UTF-8"?>
<svg width="231px" height="231px" viewBox="0 0 231 231" version="1.1" xmlns="http://www.w3.org/2000/svg" xmlns:xlink="http://www.w3.org/1999/xlink">
    <!-- Generator: Sketch 50.2 (55047) - http://www.bohemiancoding.com/sketch -->
    <title>pic01</title>
    <desc>Created with Sketch.</desc>
    <defs></defs>
    <g id="pic01" stroke="none" stroke-width="1" fill="none" fill-rule="evenodd">
        <g id="savory" transform="translate(0.000000, 11.000000)" fill="#21CE99">
            <text font-family="Gilroy-ExtraBold, Gilroy" font-size="45" font-weight="600">
                <tspan x="21" y="112">savory</tspan>
            </text>
            <g id="np_coin_1485557_21CE99" fill-rule="nonzero">
                <path d="M146.883346,13.0446 C154.417798,18.4822 160.689154,23.9118 166.969288,29.3492 C169.477692,32.607 171.995336,34.7868 173.249654,36.9586 L192.081278,36.9586 C179.529788,25.0054 164.460884,16.3106 146.88427,13.0446 L146.883346,13.0446 Z M182.038885,49.9986 C185.801606,57.608 189.573336,66.3032 192.081971,74.9986 L213.422231,74.9986 C210.913827,66.3032 207.141866,57.608 202.125058,49.9986 L182.038885,49.9986 Z M194.590375,86.9526 L194.590375,99.9994 L194.590375,111.9526 L215.930635,111.9526 L215.930635,99.9994 L215.930635,86.9526 L194.590375,86.9526 Z M192.081971,124.9986 C189.573567,133.694 185.801606,142.3892 182.038885,149.9986 L202.124827,149.9986 C207.150874,142.3892 210.913596,133.694 213.422,124.9986 L192.081971,124.9986 Z M174.504433,161.9526 C171.996029,164.1244 169.478385,167.3902 166.969981,170.648 C160.689616,176.0856 154.418491,181.5152 146.884039,185.8668 C164.461577,183.695 179.521703,174.9996 192.081047,161.9526 L174.504433,161.9526 Z M209.659971,161.9526 C207.151567,165.2104 204.633924,167.3902 203.379606,170.648 C184.547982,189.1246 160.698163,200 133.077769,200 L97.9222308,200 C70.301837,200 45.199318,189.1328 27.6203938,170.648 C11.297173,152.1714 0,127.172 0,100 C0,72.828 11.297173,47.828 27.6203938,29.352 C45.197932,10.8754 70.301837,0 97.9222308,0 L133.077769,0 C160.698163,0 184.546365,10.8672 203.379606,29.352 C219.702827,47.8286 231,72.828 231,100 C231,122.828 223.465548,144.562 209.65974,161.954 L209.659971,161.9526 Z M155.673501,38.0386 C140.604598,21.734 120.517963,11.9526 97.9240788,11.9526 C75.3301947,11.9526 53.9813882,21.7338 38.9203388,38.0386 C23.8514355,53.2574 13.8085799,76.0846 13.8085799,99.9926 C13.8085799,123.9066 23.8516665,146.7346 38.9203388,161.9466 C53.9892421,178.2512 75.3301947,186.9466 97.9240788,186.9466 C120.517963,186.9466 140.605522,178.2512 155.673501,161.9466 C170.742405,146.7278 180.78526,123.9006 180.78526,99.9926 C180.78526,76.0786 170.742174,53.2506 155.673501,38.0386 Z" id="Shape"></path>
            </g>
        </g>
    </g>
</svg>